<?xml version="1.0" standalone="no"?>
<!DOCTYPE svg PUBLIC "-//W3C//DTD SVG 20010904//EN"
 "http://www.w3.org/TR/2001/REC-SVG-20010904/DTD/svg10.dtd">
<svg version="1.0" xmlns="http://www.w3.org/2000/svg"
 width="640.000000pt" height="640.000000pt" viewBox="0 0 640.000000 640.000000"
 preserveAspectRatio="xMidYMid meet">
<metadata>
Created by potrace 1.14, written by Peter Selinger 2001-2017
</metadata>
<g transform="translate(0.000000,640.000000) scale(0.100000,-0.100000)"
fill="#000000" stroke="none">
<path d="M2652 5780 c-145 -38 -291 -139 -362 -250 l-33 -51 -41 8 c-23 4 -88
7 -146 7 -119 -2 -207 -26 -308 -86 -110 -65 -222 -198 -266 -318 -17 -46 -17
-46 -84 -58 -80 -15 -188 -64 -256 -117 l-50 -38 -80 12 c-431 60 -792 -145
-896 -509 -30 -107 -38 -289 -16 -400 47 -240 225 -445 457 -527 l77 -27 31
-63 c23 -47 27 -64 18 -70 -27 -17 -97 -111 -126 -170 -93 -184 -94 -402 -2
-589 45 -90 136 -196 206 -241 31 -19 43 -33 39 -43 -4 -8 -9 -63 -12 -123 -9
-198 47 -346 183 -483 120 -121 283 -194 434 -194 l56 0 43 -91 c57 -120 164
-232 268 -281 61 -29 79 -32 159 -33 50 0 104 3 121 7 l31 7 37 -124 c20 -69
45 -144 55 -169 69 -160 294 -219 411 -107 40 38 65 103 76 197 l6 51 93 -5
c140 -7 292 35 396 109 l29 20 29 -20 c104 -74 256 -116 396 -109 l93 5 6 -51
c3 -28 13 -76 22 -106 47 -159 238 -199 392 -82 41 31 89 131 132 278 l33 111
41 -9 c23 -6 78 -8 123 -5 118 7 194 44 292 145 69 70 130 166 155 244 4 14
17 18 58 18 226 1 457 146 556 350 61 124 75 192 70 325 -3 60 -8 117 -11 125
-5 10 9 26 44 49 118 80 224 240 254 386 42 202 -14 425 -144 567 l-50 55 31
59 c31 59 33 60 108 87 170 60 316 190 394 349 62 126 81 224 73 383 -10 201
-64 344 -179 469 -176 192 -443 277 -744 235 l-80 -12 -50 38 c-66 51 -177
102 -257 117 -66 12 -66 13 -83 58 -47 123 -154 251 -267 318 -99 60 -188 84
-307 86 -58 0 -123 -2 -146 -6 l-41 -8 -38 56 c-184 267 -577 344 -853 167
l-53 -34 -27 19 c-142 101 -348 137 -520 92z m327 -111 c35 -12 96 -43 136
-70 40 -27 78 -49 85 -49 7 0 45 22 85 49 105 70 187 96 305 96 192 0 341 -85
454 -257 47 -72 48 -72 194 -50 254 37 510 -128 583 -376 14 -50 40 -72 84
-72 47 0 134 -26 202 -61 35 -18 63 -35 63 -38 0 -4 -30 -19 -67 -35 -81 -35
-210 -109 -258 -149 -38 -31 -45 -65 -19 -91 24 -25 40 -20 127 38 378 250
783 257 1045 20 114 -103 172 -221 192 -390 39 -341 -128 -601 -455 -704 -96
-30 -246 -31 -326 -2 -121 43 -223 134 -259 229 -18 49 -21 74 -18 158 6 161
60 254 183 318 50 25 74 31 145 34 75 3 90 1 124 -19 22 -13 53 -40 70 -61 25
-31 31 -49 34 -100 4 -75 -16 -115 -68 -132 -41 -14 -55 -34 -46 -68 13 -54
96 -47 156 13 128 128 67 371 -114 451 -174 77 -435 -17 -529 -190 -35 -64
-67 -189 -67 -260 0 -75 24 -173 58 -234 83 -152 287 -267 475 -267 l69 0 -26
-44 c-14 -25 -26 -52 -26 -60 0 -9 29 -45 63 -81 176 -179 214 -451 91 -662
-37 -64 -120 -149 -185 -189 -32 -20 -61 -45 -64 -55 -3 -9 2 -55 11 -100 45
-225 -47 -445 -240 -571 -85 -55 -172 -80 -281 -80 -104 0 -130 -12 -140 -60
-25 -114 -160 -284 -261 -330 -95 -42 -220 -27 -402 48 -45 19 -89 34 -96 34
-8 0 -50 -35 -93 -78 -199 -198 -458 -224 -688 -71 -40 27 -78 49 -85 49 -7 0
-45 -22 -85 -49 -230 -153 -492 -126 -688 71 -43 43 -85 78 -93 78 -7 0 -51
-15 -96 -34 -126 -52 -195 -69 -278 -69 -96 0 -151 23 -230 99 -73 69 -112
129 -145 220 -14 38 -32 74 -40 80 -9 7 -53 11 -103 11 -151 0 -259 43 -371
148 -121 114 -178 260 -168 425 3 47 11 100 17 118 18 48 6 74 -47 107 -310
192 -361 601 -108 859 36 36 65 74 65 84 0 9 -11 34 -25 54 -14 20 -25 39 -25
41 0 2 42 7 92 10 109 6 192 32 276 87 187 120 263 305 217 523 -32 150 -108
254 -229 311 -128 62 -252 71 -353 26 -181 -79 -241 -322 -112 -451 59 -59
142 -66 155 -12 9 34 -4 53 -46 67 -45 15 -72 62 -72 125 1 61 18 96 71 144
46 42 86 52 180 45 51 -4 83 -13 130 -38 114 -61 172 -157 179 -299 8 -155
-31 -243 -148 -332 -162 -122 -372 -126 -595 -11 -88 46 -208 163 -252 247
-50 95 -67 173 -66 310 0 207 46 330 172 456 191 191 479 247 773 149 108 -36
189 -76 295 -146 44 -30 88 -54 96 -54 23 0 47 28 47 56 0 34 -95 102 -242
173 -64 31 -117 59 -118 62 -1 15 150 79 210 89 36 7 75 14 88 16 15 3 28 18
39 42 80 185 150 276 258 336 120 66 263 86 398 56 71 -16 98 -6 126 48 29 57
109 141 174 183 53 34 143 70 207 83 52 10 186 -4 249 -25z m-603 -4598 c36
-32 96 -75 134 -95 77 -41 76 -39 59 -131 -15 -81 -34 -114 -76 -132 -68 -28
-165 12 -202 85 -21 42 -96 281 -89 287 6 6 92 43 101 44 5 1 38 -25 73 -58z
m1773 38 c28 -12 51 -24 51 -28 0 -18 -74 -242 -92 -279 -28 -59 -84 -95 -148
-96 -71 -1 -101 24 -122 105 -9 35 -17 78 -17 96 -1 30 4 35 69 69 38 20 98
63 132 95 35 32 66 58 69 59 4 0 29 -10 58 -21z"/>
<path d="M2805 4242 c-6 -4 -28 -31 -49 -60 -95 -131 -268 -200 -426 -172
-135 25 -127 25 -157 -11 -91 -110 -183 -168 -302 -190 -86 -15 -172 -3 -259
36 -65 29 -94 25 -107 -15 -10 -30 9 -54 63 -79 l49 -23 -23 -93 c-36 -151
-47 -271 -41 -444 9 -235 54 -398 152 -556 180 -290 506 -459 1025 -532 180
-25 760 -25 940 0 587 83 934 292 1089 656 103 242 120 572 47 876 l-23 93 48
23 c50 23 65 45 54 79 -10 33 -48 34 -122 4 -91 -37 -228 -39 -315 -5 -72 28
-164 96 -203 150 -36 50 -61 58 -123 40 -71 -21 -205 -16 -273 10 -78 30 -160
91 -205 153 -21 29 -43 56 -49 60 -23 17 -58 5 -119 -41 -94 -72 -160 -94
-276 -94 -116 0 -182 22 -276 94 -61 46 -96 58 -119 41z m101 -157 c94 -57
159 -77 264 -82 132 -7 249 26 353 99 l28 20 48 -50 c61 -64 140 -115 222
-143 76 -26 219 -36 284 -20 l45 11 59 -58 c103 -102 216 -151 371 -161 l105
-6 22 -93 c66 -279 47 -600 -47 -809 -153 -336 -477 -520 -1042 -589 -184 -23
-652 -23 -836 0 -551 67 -869 241 -1031 563 -78 157 -113 386 -92 610 11 117
42 290 56 313 4 6 40 10 82 10 146 0 291 59 392 161 57 57 59 57 97 49 167
-39 379 25 503 151 31 32 57 58 57 58 1 1 28 -15 60 -34z"/>
<path d="M2415 3536 c-130 -58 -153 -245 -42 -343 88 -77 216 -42 268 72 71
156 -79 336 -226 271z"/>
<path d="M3855 3536 c-130 -58 -153 -245 -42 -343 88 -77 216 -42 268 72 71
156 -79 336 -226 271z"/>
<path d="M3103 3134 c-51 -18 -103 -74 -103 -111 0 -55 68 -138 129 -158 19
-6 22 -12 16 -33 -30 -131 -240 -172 -352 -69 -12 11 -30 42 -38 68 -17 50
-38 66 -75 54 -46 -15 -32 -116 26 -184 101 -117 319 -135 448 -36 l46 35 45
-35 c113 -86 295 -87 407 -2 75 57 122 182 82 221 -35 36 -69 17 -89 -50 -25
-84 -91 -128 -195 -128 -99 0 -178 50 -195 126 -6 21 -3 27 16 33 61 20 129
103 129 158 0 38 -52 93 -107 111 -57 20 -134 19 -190 0z"/>
</g>
</svg>
