<?xml version="1.0" encoding="utf-8"?>
<!-- Generator: Adobe Illustrator 18.0.0, SVG Export Plug-In . SVG Version: 6.00 Build 0)  -->
<!DOCTYPE svg PUBLIC "-//W3C//DTD SVG 1.1//EN" "http://www.w3.org/Graphics/SVG/1.1/DTD/svg11.dtd">
<svg version="1.1" id="pencil" xmlns="http://www.w3.org/2000/svg" xmlns:xlink="http://www.w3.org/1999/xlink" x="0px" y="0px"
	 viewBox="0 0 512 512" style="enable-background:new 0 0 512 512;" xml:space="preserve">
<g>
	<path d="M460.953,51.035c-34.844-34.843-69.126-57.038-76.582-49.582c-0.258,0.258-0.461,0.515-0.668,0.824
		l-54.785,54.786l-6.863,6.836c0.007,0,0.011,0.007,0.015,0.011l-0.11,0.114c24.946,19.438,48.344,40.679,66.836,59.172
		c18.461,18.461,39.73,41.89,59.168,66.832l61.746-61.742c0.332-0.18,0.59-0.386,0.848-0.645
		C518.016,120.184,495.797,85.879,460.953,51.035z"/>
	<path d="M293.57,92.414L42.738,343.242L0,511.989l168.746-42.738l250.828-250.832
		c-15.324-20.16-34.793-42.66-59.066-66.938S313.703,107.766,293.57,92.414z M132.707,378.613
		c-15.344,15.891-15.786,40.61-0.786,55.61c3.594,3.598,7.801,6.145,12.25,7.973c0.023,0.011,0.047,0.023,0.074,0.035
		c2.121,0.867,4.301,1.484,6.531,1.949c0.254,0.055,0.496,0.129,0.75,0.176c2.207,0.418,4.426,0.61,6.676,0.641
		c0.195,0.004,0.375,0.054,0.57,0.054c0.359,0,0.718-0.004,1.082-0.004c0.672,0,1.371,0.035,2.106,0.129l-4.374,4.375
		l-90.184,22.863l-27.828-27.828l22.863-90.183l3.574-3.574c-0.41,10.39,3.242,20.726,10.98,28.469
		c13.485,13.48,34.817,14.465,50.539,3.394C129.336,381.469,131.066,380.113,132.707,378.613z"/>
</g>
</svg>
